<svg width="18" height="17" fill="none" xmlns="http://www.w3.org/2000/svg"><path d="m8.52 16.32-.02-.03-.03-.02-5.21-5.87-.2-.22A49.62 49.62 0 0 1 1.5 8.4a4.9 4.9 0 0 1 4-7.9 5.1 5.1 0 0 1 3.19 1.19l.31.25.31-.25A4.96 4.96 0 0 1 17.5 5.4c0 1.17-.45 2.25-1.17 3.07l-7 7.89a.44.44 0 0 1-.14.1.78.78 0 0 1-.29.04c-.18 0-.3-.05-.38-.18ZM2.5 7.81c.17.23 1.06 1.25 2.2 2.53l3.92 4.4.37.41.37-.42 6.2-6.99c.61-.62.83-1.47.83-2.34 0-2.08-1.72-3.8-3.8-3.8-1.16 0-2.28.57-3.06 1.46-.2.2-.38.24-.54.24-.1 0-.27-.08-.44-.24A4.17 4.17 0 0 0 5.5 1.6a3.83 3.83 0 0 0-3.8 3.77c-.1 1.08.37 1.9.8 2.44Z" fill="#000" stroke="#000"/></svg>